<svg xmlns="http://www.w3.org/2000/svg" width="506.27" height="518.38" viewBox="0 0 506.27 518.38"><title>ImgLogin</title><g style="isolation:isolate"><g id="Layer_1" data-name="Layer 1"><path d="M81.5,365.31S9.91,327.19,77.78,249.1c30.68-37.18,37.18-72.51,41.83-94.82s16.73-66,114.35-27.89c29.74,3.72,174.77-53.92,192.43,13s55.78,133.86,70.65,159,23.24,79-68.79,76.23C340.94,372,81.5,365.31,81.5,365.31Z" fill="#0667bd" opacity="0.22"/><path d="M59.66,372.5c8.28-16.41,29.52-34.42,6.73-50.43s-84-62.35-61.48-117.51,100-49.67,128.74-57,71.81-30.33,83.41-39.88,19.62-31.42,91-26.64,137.62,49.88,145.08,59.57c22.6,29.36,82.49,182.73,9.14,223.16s-402.19,9-402.19,9" fill="#0667bd" opacity="0.29"/><path d="M38.86,381.37h442s-40-10-67-9.39c-86.94,2-303,.56-303,.56S59.86,366.65,38.86,381.37Z" fill="#095289"/><path d="M296,105H445c8.49,0,15.37,9.36,15.37,20.91v114.3l21.76,58.35-56.78-22.77H296c-8.49,0-15.36-9.37-15.36-20.92v-129C280.59,114.38,287.46,105,296,105Z" fill="#02509b"/><path d="M71.93,506.67s-3-15.2,16.72-19,28.89,3.8,38-1.52,24.32.76,37.24-.76,31.17.76,25.85,10.64-.76,20.52-19,19.76-31.16,3.8-41.8,2.28S97,519.59,91.69,515.79,71.17,510.47,71.93,506.67Z" fill="#0667bd" opacity="0.13"/><path d="M337.53,490.7s-2.65-19.71,14.55-24.64,25.13,4.93,33.06-2,21.17,1,32.41-1,27.11,1,22.48,13.79-.66,26.61-16.53,25.62-27.11,4.93-36.37,3-27.78,2-32.41-3S336.87,495.63,337.53,490.7Z" fill="#0667bd" opacity="0.11"/><path d="M285.56,0H85.89C74.52,0,65.31,12.29,65.31,27.45v150L36.16,254l76.05-29.88H285.56c11.36,0,20.57-12.29,20.57-27.45V27.45C306.13,12.29,296.92,0,285.56,0Z" fill="#0667bd"/><g opacity="0.23"><circle cx="122.86" cy="98.37" r="11" fill="#fff"/><circle cx="190.36" cy="98.37" r="7.5" fill="#fff"/><circle cx="257.86" cy="98.37" r="5" fill="#fff"/></g><g opacity="0.11"><circle cx="320.09" cy="175.37" r="8.23" fill="#fff"/><circle cx="370.6" cy="175.37" r="5.61" fill="#fff"/><circle cx="421.11" cy="175.37" r="3.74" fill="#fff"/></g><path d="M112.68,373.52c1-.79,1-.79,1-6.1v-12.7c0-2.09,0-4.18,0-6.27s.06-4.29.08-6.43,0-4.17,0-6.4a10.6,10.6,0,0,1,1.18.31c4.15,1.57,8.28,3.19,12.44,4.73a1.59,1.59,0,0,1,1.26,1.8c-.08,2.19,0,4.38,0,6.94l4.08-2.87v26.54h.5V346.41c1.92.79,3.49,1.42,5,2.08,1.78.77,4.19,1.12,5.11,2.48s.33,3.71.34,5.63c0,5.48,0,11,0,16.67H148v3H67.65v-2.82l3.4-.16v-2.07c0-14.84,0-29.68,0-44.53a2.61,2.61,0,0,1,1.21-2.44c3.39-2.36,6.7-4.81,10.05-7.23.33-.23.68-.42,1.26-.78v48.29c0,2.46,0,4.91,0,7.36a5,5,0,0,0,.5,1.43,4.79,4.79,0,0,0,.48-1.44q0-26.1,0-52.2V316.1c1.79.74,3.41,1.39,5,2.07,5,2.12,10,4.28,15,6.35A1.89,1.89,0,0,1,106,326.6c-.06,3.7,0,7.4,0,11.46l6.72-2.69Zm-9-13.49-16.09-2a21.16,21.16,0,0,1,0,2.14c-.14,1.26.32,1.73,1.64,1.76,2.07.06,4.14.37,6.21.57l8.13.74c0-.43.1-.73.11-1C103.74,361.55,103.73,360.88,103.73,360Zm-.18-27.4c.42-3.1.42-3.09-2.18-4.07L89,323.86c-.37-.13-.76-.2-1.23-.33a12.86,12.86,0,0,1-.08,1.38c-.31,1.63.37,2.46,2,2.85s2.85,1,4.27,1.49Zm-15.79,18.5v3.69l15.87,2.36a8.72,8.72,0,0,0,.1-1c-.09-2.81.49-2.13-2.39-2.75-2.69-.58-5.43-.91-8.15-1.37C91.42,351.79,89.64,351.46,87.76,351.13Zm15.79-.09c.64-2.89.49-3.15-2-3.73s-4.87-1.12-7.32-1.66l-6.57-1.44c0,1,0,1.76,0,2.53s.34,1.18,1.12,1.34C93.66,349,98.55,350,103.55,351Zm0,18.34c.55-3.24.55-3.22-2.45-3.42-3.44-.22-6.88-.45-10.32-.75s-3.33-.33-3.08,3c0,.1.1.18.24.43Zm0-30.6c.43-3.12.43-3.12-2.18-4l-12.17-4c-.46-.15-.94-.22-1.56-.37a21.79,21.79,0,0,0,0,2.72,1.38,1.38,0,0,0,.71,1C93.4,335.71,98.43,337.22,103.56,338.78Zm-15.84-1.5v3.64l16,4a10,10,0,0,1,.07-1.2c.3-1.61-.38-2.26-2-2.6-2.74-.6-5.43-1.47-8.14-2.22C91.73,338.36,89.83,337.85,87.72,337.28ZM72.66,369.35c2-.14,4-.35,6-.4,3.53-.08,3.59-.09,3.1-3.61,0-.08-.11-.15-.24-.32-2.21.28-4.48.54-6.74.85-2.76.37-2.76.39-2.39,3.17C72.39,369.08,72.45,369.11,72.66,369.35Zm8.91-45.76c-.47.26-.91.49-1.33.76-2.06,1.32-4.12,2.64-6.17,4s-2.12,1.47-1.53,4.25l7.22-4.35C82.1,326.81,82.22,326.52,81.57,323.59Zm-9.09,21.28c3-1.29,6-2.54,8.88-3.83a1,1,0,0,0,.42-.74c.06-.92,0-1.84,0-3.05-2.61,1.22-5,2.3-7.3,3.4S72,341.83,72.48,344.87Zm0-6.12L79.8,335c2.26-1.15,2.52-1.8,1.71-4.54l-7.1,3.94C72.11,335.66,72.1,335.65,72.44,338.75Zm9.37,5.42c-2.71,1-5.09,2-7.47,2.86s-2.48,1.25-1.75,3.93c2.86-1,5.72-1.92,8.56-2.94a1.25,1.25,0,0,0,.63-.91C81.87,346.24,81.81,345.36,81.81,344.17Zm-9.34,19.09c2.9-.48,5.72-.93,8.53-1.44a1.19,1.19,0,0,0,.76-.77c.09-.95,0-1.91,0-3-2.6.56-4.89,1-7.18,1.53s-2.44.53-2.3,3A6.53,6.53,0,0,0,72.47,363.26Zm-.08-6.11c3.09-.78,6-1.49,8.8-2.26a1,1,0,0,0,.58-.77c.07-.92,0-1.85,0-3-2.82.83-5.39,1.64-8,2.32-1.14.3-1.74.78-1.52,2C72.36,355.92,72.35,356.38,72.39,357.15Zm69.93,6.16.47-.39c-.31-.45-.54-1.19-.94-1.3-2.25-.62-4.55-1.08-6.92-1.62-.13.88-.57,1.71.65,2C137.82,362.42,140.07,362.86,142.32,363.31Zm.08-3c.27-1.53.27-1.54-.92-1.88-1.9-.54-3.79-1.07-5.69-1.58a3.56,3.56,0,0,0-.92,0c-.31,1.13,0,1.65,1.08,1.88C138.07,359.22,140.17,359.79,142.4,360.35Zm-.08-6,.44-.27c-.24-.49-.35-1.26-.72-1.42-2.32-1-4.69-1.83-7-2.72l-.44.41c.34.54.57,1.37,1.06,1.58C137.8,352.85,140.07,353.58,142.32,354.37ZM135,370.07c-.42,1.34-.17,1.94,1.19,1.94,1.72,0,3.44.1,5.15.24,1.35.11,1.51-.48,1.1-1.63Zm0-6.68-.41.43c.32.49.58,1.33,1,1.41,2.28.46,4.59.74,6.88,1.08l.33-.37c-.25-.44-.43-1.21-.76-1.28C139.68,364.15,137.32,363.79,135,363.39Zm.07,3.35-.44.4c.27.48.49,1.33.82,1.38,2.34.35,4.69.53,7,.76l.33-.46c-.33-.42-.6-1.14-1-1.2C139.57,367.24,137.31,367,135.05,366.74Zm7.3-9.39.39-.32c-.2-.45-.29-1.2-.61-1.32-2.35-.87-4.75-1.62-7.14-2.4l-.43.45c.32.52.53,1.34,1,1.5C137.77,356.05,140.07,356.67,142.35,357.35Zm-24.06-12.61c.33-3.43,0-3.87-2.53-3.9C115.25,344,115.47,344.35,118.29,344.74Zm-2.46,6.68c-.55,3.4-.27,3.8,2.5,3.72V352Zm0,16.22c-.71,3.12-.23,3.76,2.38,3.18C118.76,367.62,118.54,367.32,115.86,367.64ZM118.25,350c.45-3.27.1-3.78-2.46-3.67C115.3,349.5,115.4,349.65,118.25,350Zm0,15.62c.58-3.14.23-3.62-2.39-3.26C115.23,365.53,115.54,366,118.22,365.61Zm0-5.2c.52-3.21.27-3.56-2.41-3.47C115.21,360.14,115.41,360.44,118.23,360.41Zm2.15-18c-.39,3.2-.23,3.45,2.22,3.61C123.17,343.11,123,342.79,120.38,342.4Zm2.26,13.79c.39-3.27.17-3.58-2.29-3.51v3.09Zm-2.19,1.49c-.67,3.05-.2,3.73,2.25,3.24C123,357.86,123,357.86,120.45,357.68Zm2.16-6.64c.51-3,.29-3.32-2.27-3.51v3.09c.53.15,1,.3,1.53.41A3.66,3.66,0,0,0,122.61,351Zm-2.28,15h2.31c.4-3.16.3-3.29-2.31-3.14Zm0,1.91v3.17h2.24C123.12,367.91,123,367.77,120.37,367.92Zm-11.16-7.63c2.09-.06,2.3-.51,1.72-3.47C108.81,356.85,108.67,357.13,109.21,360.29ZM111,340.63c-2.12.47-2.39,1-1.83,3.88l1.94-.52c0-.78.12-1.5.12-2.21A6.66,6.66,0,0,0,111,340.63Zm0,5.48c-2.11-.14-2.62.91-1.74,3.55C111.29,349.44,111.44,349.12,111,346.11Zm-1.89,16.17v3.29c2.16.1,2.47-.53,1.71-3.46Zm1.8-10.91c-2.1.3-2.38,1-1.66,3.61C111.33,354.82,111.47,354.53,110.94,351.37ZM109,367.57a12.26,12.26,0,0,0,0,2.36,1.55,1.55,0,0,0,.92,1c.69.2,1.18-.14,1.13-1s0-1.53,0-2.37Zm15.73.71c-.37,3.16-.28,3.28,2,2.92C127.27,368.29,127.12,368.06,124.76,368.28Zm0-14.7c-.48,3-.29,3.33,2,3.26C127.24,354,127.2,353.91,124.81,353.58Zm0,4.94c-.39,3.1-.3,3.24,2,3.09C127.29,358.81,127.1,358.51,124.77,358.52Zm0,4.68v3.2l2.18.16c0-.71,0-1.21,0-1.72s-.05-.81-.07-1.29Zm2-15.84c.43-3,.33-3.16-2-3.47C124.25,346.71,124.36,346.92,126.77,347.36Zm0,4.81c.53-2.92.31-3.29-1.93-3.36C124.29,351.6,124.38,351.76,126.74,352.17Zm-20.65-1.56c1.9-.44,2.08-.94,1.4-3.52C105.75,347.38,105.55,347.85,106.09,350.61Zm0,5c1.79.05,2.14-.81,1.4-3.31C105.92,352.1,105.8,352.59,106.07,355.57Zm-.11,2v3.13c2,0,2.16-.45,1.56-3.33ZM107.61,371v-3.33l-1.54.22v3.18Zm0-29.12c-1.77.36-2.1,1.28-1.32,3.46C108,345.06,108.09,344.84,107.59,341.89Zm-1.41,24c1.72.06,1.83-.2,1.41-3.18C105.83,362.52,105.56,363.13,106.18,365.87Zm22.53-3.07c3.48-.84,3.54-.89,3-2.86C130.75,361,128.36,360.19,128.71,362.8Zm0,9.27c3.51,0,3.53-.05,3-2l-3,.4Zm3.16-5.23c-3.26.3-3.36.37-3,2.14.34,0,.69,0,1-.1.65-.11,1.31-.24,2-.38a6.46,6.46,0,0,0,.1-.8A7,7,0,0,0,131.88,366.84Zm0-16.76c-3.29,1.6-3.48,1.82-2.93,3.56C129.93,352.41,132.39,352.68,131.9,350.08Zm-3.12,9.62c3.29-1.15,3.62-1.27,3-2.82C129.05,357.58,128.57,358,128.78,359.7Zm0,6.15c3.25-.41,3.52-.63,2.91-2.32C128.58,364.14,128.58,364.14,128.79,365.85Zm3-12.3c-2.75.88-3.3,1.43-3,3C131.66,355.65,132.14,355.17,131.81,353.55Z" fill="#43a2dd"/><path d="M160.66,315.61v53.16a6.08,6.08,0,0,0,0,1.6c.12.41.53.73.81,1.09.23-.34.58-.65.65-1a10.23,10.23,0,0,0,0-1.84v-53c4.76.87,9.27,1.67,13.78,2.5,17.13,3.16,34.25,6.38,51.39,9.45,2.16.38,2.66,1.19,2.65,3.28-.08,13.12,0,26.24,0,39.36a7.38,7.38,0,0,0,.23,1.29h5.47v4.35H117.62v-4.19l4.4-.24V324.11Zm26.46,42.78-14.16-.7v13.66h14.16Zm19.11,1L194,358.71v12.63h12.28Zm-52.78-1.85c-3.42.2-6.55.34-9.67.62a1.8,1.8,0,0,0-1.23,1.21c-.09,4-.05,7.94-.05,12h10.95Zm-25.82,1.61v12.38c2.88,0,5.61,0,8.35,0,.44,0,1.23-.59,1.23-.92.09-3.94.06-7.89.06-12Zm95.31,12.27V360.28l-10.55-.51v11.66Zm-50.12-23.36c0,2.53,0,4.81,0,7.08a1.46,1.46,0,0,0,1,1c1.79.19,3.61.22,5.35.3V348.5Zm8.26.61v8H187v-7.45Zm18.4,9v-7.41l-5.44-.47v7.59Zm-50.94-1.38a26.4,26.4,0,0,0,3.63-.23c.52-.1,1.29-.72,1.32-1.14.13-2.27.06-4.55.06-7.16l-5,.6Zm52.37-5.86v7.11c5,1.4,5.75.88,5.55-4.05,0-.82-.13-1.65-.23-2.71Zm-53.64-2c-1.35.13-2.57.17-3.75.4a1.47,1.47,0,0,0-1,1c-.08,2.25,0,4.5,0,6.94l4.76-.37Zm69.74,10c1-6.34.71-6.77-4.26-7.11-.07,0-.14,0-.33.11v7Zm-79.89-1.35v-7.53a13.9,13.9,0,0,0-2.84.19c-.59.17-1.45.76-1.48,1.22-.17,2-.07,4.06-.07,6.34ZM173,327c-.78,5.64.17,6.64,5.39,5.88C178.89,326.86,179.5,327.48,173,327ZM172.8,337c0,1.78-.08,3.15,0,4.5,0,.46.54,1.18.93,1.25,1.49.28,3,.34,4.71.5v-5.58Zm50.1,21.89V352.2l-4.38-.29C218,360.16,217.76,358.82,222.9,358.93Zm-91.24-1.36v-7.43c-1.55.33-3.6-.85-4.08,1.33-.42,1.94-.09,4-.09,6.1Zm50.21-19.46c-.48,6.39-.89,5.71,5,5.79v-5.18Zm0-10v5.62l5.07.61v-5.37Zm16.78,7.72c1-5,.61-5.48-4.5-5.6C193.16,335.16,193.55,335.66,198.64,335.79Zm0,9.31c.84-5-.14-6.08-4.63-5.14C193.44,345.1,193.79,345.5,198.66,345.1ZM146.6,327.93c-4.46.07-5.08,1-3.73,5.69C147,333.78,147.24,333.35,146.6,327.93Zm0,15.4V338c-4.47,0-5.11,1-3.71,5.85Zm55.06,2.33,4.51.46V341l-4.51-.48Zm-52.37-8.3V343l4.09-.52v-5.69Zm56.69-.44c.79-5.63.69-5.31-4.3-5.45v4.87Zm-52.66-10.49-4.23.83c0,1.55,0,2.92,0,4.28a7.6,7.6,0,0,0,.17,1.08C154.25,332.35,153.74,332.76,153.34,326.43ZM137,329.65c-4,0-4.86,1.61-3.18,5.63C137.7,334.81,138,334.35,137,329.65Zm75.48,12.4c-1,5-.73,5.3,4,4.88C217.35,342.28,216.84,341.66,212.47,342.05Zm-79.08,3c1.44-.32,3.41-.33,3.57-.87.45-1.54.16-3.3.16-5.11l-3.73.62ZM222.9,339c.74-4.77.18-5.45-3.82-4.69C218.12,338.38,219.18,339.68,222.9,339Zm-10.55-6v4.8l4,.55C217.12,333.31,217,333.16,212.35,333Zm10.46,14.69c.93-4.52,0-5.66-3.89-4.56v4.29c1.18.14,2.22.28,3.27.38A2.12,2.12,0,0,0,222.81,347.67Zm-95-11.58c3.84.06,4.36-.83,3.13-5.33C127.12,330.86,126.77,331.45,127.78,336.09Zm-.14,4.43v5.17l3.44-.51V340Z" fill="#2c84c6"/><path d="M299.79,369.48h7.41v6.29h-108v-6.08l5.81-.44v-4q0-47.59-.05-95.19a5.48,5.48,0,0,1,2.61-5.17c7-4.89,13.92-10,20.87-15,.88-.63,1.8-1.18,3.2-2.1v4q0,56.94,0,113.89a26.24,26.24,0,0,0,.55,3.82l1.35-.22V247.6c1.29.42,2.12.63,2.9,1,13.32,5.63,26.61,11.33,40,16.87,2.27.94,3.22,2.05,3.14,4.62-.21,6.56.09,13.14-.14,19.7-.1,2.75.89,3.94,3.37,4.77,4.54,1.51,8.9,3.55,13.46,5,2.92.91,3.53,2.47,3.51,5.32-.13,20.48-.07,41-.07,61.45C299.64,367.13,299.72,368,299.79,369.48Zm-34-.13,1.84-.08v-80.4l6.67,2.13.56-1.09a15,15,0,0,0-2.76-1.65c-7.58-2.56-15.19-5-22.79-7.54-2.82-.92-5.64-1.81-8.49-2.72-1.45,7-1.2,7.4,5,9.24,2,.61,4.08,1.12,6,1.88,4.38,1.67,8.69,2.59,13-.13.13-.08.4.07.83.17C265.82,315.86,265.58,342.61,265.81,369.35Zm-25-106.17c-1.23,7.24-1.18,7.35,4.76,9.46q12.58,4.46,25.17,8.89c1.12.4,2.26.73,3.43,1.1,1.27-6.08,1.12-6.36-4.15-8.37-2-.75-3.93-1.53-5.91-2.28Zm-32.64,19.47,15.68-9.42c4.67-2.81,5.14-4.06,3.58-9.93l-15.93,10.26C207,276.45,207,276.46,208.15,282.65Zm-.09,78.05a2.31,2.31,0,0,0,.77.24c4.3-.3,8.62-.56,12.92-.94,7.15-.63,6.29.81,6.18-7a4.66,4.66,0,0,0-.47-1.2c-4.88.6-9.81,1.17-14.73,1.83-5.45.73-5.45.76-5,6.31A4.26,4.26,0,0,0,208.06,360.7ZM228,307.31l-15.87,6.09c-5.05,1.93-5.34,2.52-3.85,8.42,6.16-2.1,12.31-4.16,18.42-6.34a2.35,2.35,0,0,0,1.24-1.67C228.08,311.87,228,309.9,228,307.31ZM227.49,337c-6.16,1.32-12.33,2.6-18.48,4a2.16,2.16,0,0,0-1.26,1.57,49.66,49.66,0,0,0-.06,5c.78.18,1,.3,1.2.26,4.5-.72,9-1.42,13.5-2.2,6.15-1.06,6.15-1.09,5.54-7.38A7.38,7.38,0,0,0,227.49,337Zm.47-14.88c-5.7,1.69-10.69,3.17-15.68,4.67-5.22,1.58-5.6,2.34-3.92,8.09,6.09-1.55,12.21-3.06,18.3-4.7a2.24,2.24,0,0,0,1.24-1.62C228.06,326.6,228,324.63,228,322.11Zm-.32-44.18c-5.55,3.09-10.77,6-16,8.89-4.61,2.57-4.73,2.85-3.47,8.84,5-2.55,9.91-5.07,14.82-7.56C228.66,285.25,228.67,285.26,227.64,277.93Zm-.08,14.83-16.38,7.65c-3.92,1.83-4.58,3.76-2.71,8.22,4.69-2,9.37-4,14.07-6,5.89-2.47,5.9-2.46,5.34-9C227.87,293.59,227.81,293.49,227.56,292.76Zm12.79,66.66,7.51.46c.67-7.91,1.73-8.36-7.29-7.68-.07.71-.2,1.46-.21,2.2C240.33,355.93,240.35,357.46,240.35,359.42Zm7.4-43.13c1.14-8.12,1.21-7.43-6.94-8.41C239.24,314.73,240.31,316,247.75,316.29Zm0,28.75c1-7.48,1.49-7.78-7-7.61C239.78,345.3,239.53,345.28,247.78,345Zm-7-52.27c-1.22,7.84.41,9.68,7.38,8.75V294.7ZM247.84,331c1.17-7.7-.85-9.77-7.35-7.92v6.62a20.32,20.32,0,0,0,2.3.67C244.41,330.57,246,330.73,247.84,331Zm29.71-22.35c.9-7.05.25-8-5.16-8.09C271.5,307.43,271.56,307.54,277.55,308.6Zm-5.15,3.07c-.82,7.22-.53,7.65,5.08,8C278.69,313.15,278.16,312.3,272.4,311.67Zm-.29,52.6h5.45v-7h-5.3c-.05,1.26-.12,2.34-.15,3.43S272.11,362.88,272.11,364.27Zm5.36-33.3c.77-6.72,1.33-7.94-5.14-7.64C271.58,330.19,271.58,330.19,277.47,331Zm.17,22.09c.66-7.19.4-7.53-5.12-7.06C271.18,352.82,271.71,353.58,277.64,353.06Zm-5.21-18.68c-1,7.29-.57,7.9,5,7.42C278.75,335.15,278.46,334.71,272.43,334.38Zm9.81-9c-1,6.42-.68,7.77,4.78,6.94C287.56,325.73,287.37,325.45,282.24,325.4Zm4.64,17.78c.92-6.57.47-7.22-4.7-6.82C281.13,343,281.49,343.56,286.88,343.18Zm-.11-31.74c.94-6.5,1-7.48-4.59-7.64C281.14,310.07,281.34,310.44,286.77,311.44Zm-4.45,3.13c-1.42,6.11-.47,7.57,4.65,7.14C287.61,315.14,287.44,314.87,282.32,314.57Zm4.73,32.8-4.71-.5c-1.18,7.13-.56,8,4.71,6.79Zm-5,10.47v6.81h5v-6.48a19.89,19.89,0,0,0-2.08-.31C284.05,357.81,283.18,357.84,282,357.84Zm13.66-23.46c1.31-5.91.82-6.72-4.11-6.82C290.29,333.51,290.78,334.31,295.69,334.38ZM291.4,354.6l4.51.54v-6.6l-4.51-.61Zm4.39-40.43c1-6.35.84-6.66-4.25-7.41C290.47,312.86,290.63,313.14,295.79,314.17Zm-.07,30.54c1.29-6.07.66-7-4.17-6.7C290.41,344,290.67,344.45,295.72,344.71Zm.1-20.35c1-6.19.38-7.14-4.34-7C290.55,323.4,290.66,323.59,295.82,324.36Zm-4.27,34.29c-1.1,6.51-.63,7.18,4.35,6.21v-6.21Zm-29.39-24.78-3.82.8V342l3.82-.81Zm0,23.1-3.87.28v7.23l3.87-.21Zm-3.75-49.16c4.4-.82,4.76-1.7,3.51-7.89C257.65,300.55,257.33,301.24,258.45,307.81Zm-.08,11.26c4.32-.41,5.11-2.3,3.4-7.77C257.55,312.08,257.55,312.08,258.37,319.07Zm0,26.87v7.12c4.31-.16,5.11-2.1,3.34-7.52ZM262,322.7c-4.35.61-4.83,1.73-3.52,7.7C262.85,330.06,263.09,329.55,262,322.7Zm-10.47,31.23,3.6-.55v-6.72C250.66,346.63,250.26,347.48,251.53,353.93Zm-.1-32.95c4.16-.66,4.44-1.32,3.32-7.32C250.66,314,250.37,314.62,251.43,321Zm3.45,14.64c-4.25.23-4.57.9-3.39,7.33l3.64-.54c0-1.79,0-3.34,0-4.88C255.1,336.89,255,336.25,254.88,335.62Zm-3.46-25.57c4.12-.74,4.58-1.88,3.23-7.53C250.54,303.33,250.39,303.67,251.42,310.05Zm.1,21.7c3.94-.06,4.6-1.6,3.08-7.17C250.6,325.06,250.15,326.08,251.52,331.75Zm3.38,32.76v-7.14l-3.63.59v6.55Z" fill="#2c84c6"/><path d="M357.84,373.27h5.9v3H277.81v-2.84h7.49v-16l15.07-1.23c0,.65.08,1.2.09,1.74q0,6.81,0,13.64a4,4,0,0,0,0,1.09c.06.24.33.42.51.64.2-.2.52-.37.56-.59a6.63,6.63,0,0,0,.05-1.41c0-10.76,0-21.53,0-32.29,0-1.55.58-1.91,2-1.67l.15,2,6.28-.93c0-3.4.09-6.73,0-10.06-.06-1.51.39-2.15,1.89-2.31s3-.53,4.58-.83v6.24c-1.41.25-2.79.54-4.17.72-.87.12-1.33.4-1.29,1.37.05,1.5,0,3,0,4.73l6.57-1c0-1.58,0-3.09,2.4-2.43v36.52a4.66,4.66,0,0,0,0,1.24c.08.27.4.64.62.64s.56-.33.66-.6a3.23,3.23,0,0,0,0-1.08V354.48l20.59-1.66v20.37h1.64V352.85l4.59.63c2.58.36,5.16.79,7.76,1,1.46.15,2,.63,2,2.21-.11,4.91,0,9.82,0,14.74Zm-40.31-.15v-9.26c-1,0-1.86,0-2.73,0s-1.4.35-1.35,1.38c.07,1.56,0,3.13,0,4.69,0,3.61,0,3.61,3.63,3.34A2,2,0,0,0,317.53,373.12Zm-5-8.9h-3.94v9.08a20,20,0,0,0,2.93-.05,1.42,1.42,0,0,0,1-1C312.54,369.62,312.51,367,312.51,364.22Zm-5.11,9v-9l-3.64.23v8.78Zm6.15-10.65c1.17,0,2.16.07,3.14,0,.33,0,.88-.48.89-.75.09-1.7,0-3.4,0-5.27l-4.07.32Zm-5-5.36V363l3.84-.27v-5.82ZM307.4,363v-5.74l-3.6.32v5.64ZM313,347.59c3,0,3,0,2.94-2.72,0-.63,0-1.25,0-1.88-.05-.88-.3-1.88-1.33-1.7a2.32,2.32,0,0,0-1.52,1.57A32.14,32.14,0,0,0,313,347.59Zm-1.11.24a36.32,36.32,0,0,0-.05-4.33c-.08-.62-.75-1.16-1.15-1.74-.55.53-1.48,1-1.57,1.58a32.55,32.55,0,0,0-.08,4.77Zm23.6,17.82c0,1.5,0,2.84,0,4.18,0,.92.56,1,1.24.91s1.73.48,1.79-.82,0-2.87,0-4.44Zm.11-8.12v5a10.46,10.46,0,0,0,2,0c.36-.07.9-.45.92-.72.09-1.46,0-2.94,0-4.52ZM308,348.21a37.22,37.22,0,0,0-.06-4.39c-.07-.56-.76-1-1.17-1.56-.49.47-1.35.9-1.41,1.42a41.54,41.54,0,0,0-.07,4.89Zm21.88,22.46h2.73v-4.81h-2.73Zm2.84-12.93-2.8.17v4.82c2.72.4,2.81.32,2.8-2.15Zm-8.22.44v5l2.56-.2v-4.78Zm0,7.88v4.73h2.59v-4.73Zm-28.56,1v4.4l1.94-.1V367Zm0-6.92v4.78c.89-.51,1.91-.77,2-1.23A16.89,16.89,0,0,0,298,360Zm-2.23,6.64c-.88.47-1.89.7-2,1.14a16,16,0,0,0-.08,3.46h2.07Zm-4.07-6-.39-.47c-.54.36-1.46.65-1.56,1.1a17.59,17.59,0,0,0-.07,3.51l2-.13Zm4.06,3.83v-4.26l-2,.15v4.22Zm-4.13,6.81v-4.12l-1.95.1a23.8,23.8,0,0,1,0,2.55C287.36,371.49,288.1,371.8,289.51,371.36Z" fill="#2c84c6"/><path d="M200.1,373.24c1-.79,1-.79,1-6.1v-12.7c0-2.09,0-4.18,0-6.27s.06-4.28.07-6.43,0-4.16,0-6.4a11,11,0,0,1,1.17.31c4.15,1.58,8.29,3.19,12.45,4.73a1.61,1.61,0,0,1,1.26,1.81c-.09,2.18,0,4.37,0,6.93l4.09-2.86V372.8h.49V346.13c1.93.8,3.49,1.42,5,2.09,1.77.76,4.19,1.11,5.1,2.47s.33,3.71.34,5.63c0,5.49,0,11,0,16.67h4.3v3H155.08v-2.82l3.4-.15v-2.07q0-22.28,0-44.53a2.58,2.58,0,0,1,1.22-2.44c3.38-2.37,6.7-4.82,10.05-7.23.32-.24.67-.43,1.25-.79v48.3c0,2.45,0,4.9,0,7.36a5,5,0,0,0,.49,1.42,4.79,4.79,0,0,0,.48-1.44q0-26.1,0-52.2v-3.54c1.79.74,3.42,1.39,5,2.07,5,2.12,10,4.28,15,6.35a1.91,1.91,0,0,1,1.39,2.08c-.07,3.7,0,7.4,0,11.46l6.72-2.69Zm-8.95-13.49-16.08-2c0,.91.05,1.54,0,2.14-.14,1.26.31,1.73,1.64,1.76,2.07.06,4.14.38,6.21.57L191,363c.05-.43.11-.73.12-1C191.16,361.27,191.15,360.6,191.15,359.75Zm-.17-27.4c.42-3.1.41-3.09-2.18-4.07l-12.43-4.69c-.36-.14-.75-.21-1.23-.34a10.7,10.7,0,0,1-.08,1.38c-.31,1.64.38,2.46,2,2.85s2.85,1,4.28,1.49Zm-15.8,18.5v3.69l15.87,2.36a8.29,8.29,0,0,0,.1-1c-.08-2.8.49-2.12-2.38-2.75-2.69-.58-5.43-.91-8.15-1.37C178.84,351.51,177.07,351.18,175.18,350.85Zm15.79-.09c.64-2.88.49-3.15-2-3.73l-7.32-1.66-6.58-1.44c0,1,.06,1.76,0,2.53s.34,1.19,1.12,1.34C181.08,348.77,186,349.76,191,350.76Zm0,18.34c.56-3.24.55-3.22-2.45-3.41-3.44-.23-6.88-.46-10.31-.76s-3.34-.33-3.08,3c0,.09.09.17.23.43Zm0-30.6c.44-3.12.44-3.12-2.17-4l-12.17-4c-.46-.14-.94-.22-1.57-.37a23.88,23.88,0,0,0,0,2.72,1.38,1.38,0,0,0,.71,1C180.82,335.44,185.85,336.94,191,338.5ZM175.15,337v3.65l15.95,4c0-.6,0-.91.06-1.21.31-1.6-.38-2.26-2-2.6-2.75-.59-5.43-1.47-8.15-2.22Zm-15.07,32.07c2-.13,4-.35,6-.39,3.54-.08,3.59-.1,3.1-3.62,0-.08-.11-.15-.23-.31-2.22.27-4.49.53-6.75.84-2.76.37-2.76.39-2.39,3.17C159.82,368.8,159.88,368.84,160.08,369.07ZM169,323.31c-.47.27-.92.49-1.34.76l-6.17,4c-2.08,1.36-2.12,1.48-1.52,4.25l7.21-4.35C169.52,326.54,169.64,326.25,169,323.31Zm-9.1,21.28c3-1.28,5.95-2.53,8.89-3.83a1,1,0,0,0,.42-.74c0-.92,0-1.84,0-3l-7.3,3.41C159.43,341.55,159.44,341.56,159.9,344.59Zm0-6.12,7.36-3.75c2.26-1.15,2.53-1.81,1.72-4.55-2.39,1.33-4.74,2.64-7.11,3.94S159.53,335.37,159.86,338.47Zm9.37,5.43-7.46,2.86c-2.32.88-2.49,1.24-1.75,3.93,2.86-1,5.72-1.93,8.56-2.94a1.27,1.27,0,0,0,.62-.92C169.29,346,169.23,345.08,169.23,343.9ZM159.89,363c2.9-.49,5.73-.94,8.54-1.45a1.15,1.15,0,0,0,.75-.77,29.35,29.35,0,0,0,0-3L162,359.29c-2.43.53-2.43.53-2.3,3A7.14,7.14,0,0,0,159.89,363Zm-.08-6.12c3.09-.78,6-1.49,8.81-2.26a1.08,1.08,0,0,0,.58-.77c.07-.92,0-1.85,0-3-2.81.83-5.38,1.64-8,2.32-1.14.3-1.73.78-1.52,2A15.89,15.89,0,0,1,159.81,356.87ZM229.75,363l.47-.38c-.31-.46-.54-1.2-.95-1.31-2.25-.62-4.54-1.08-6.91-1.62-.13.89-.58,1.71.64,2Zm.07-3c.27-1.53.28-1.54-.92-1.88q-2.84-.81-5.69-1.58a3.55,3.55,0,0,0-.92,0c-.31,1.13,0,1.65,1.09,1.88C225.5,358.94,227.6,359.52,229.82,360.07Zm-.08-6,.44-.27c-.23-.49-.34-1.26-.71-1.42-2.32-1-4.7-1.83-7.05-2.72l-.45.42c.35.54.57,1.37,1.06,1.57C225.23,352.57,227.5,353.3,229.74,354.09ZM222.4,369.8c-.43,1.33-.17,1.93,1.19,1.93,1.72,0,3.44.1,5.15.24,1.34.11,1.51-.48,1.09-1.62Zm0-6.69-.42.43c.33.49.58,1.33,1,1.41,2.27.46,4.58.74,6.88,1.08l.33-.36c-.25-.45-.43-1.22-.77-1.29C227.1,363.87,224.75,363.51,222.41,363.11Zm.07,3.35-.44.4c.27.48.48,1.34.82,1.38,2.33.35,4.69.53,7,.76l.32-.45c-.33-.42-.6-1.15-1-1.21C227,367,224.73,366.74,222.48,366.46Zm7.29-9.39.39-.32c-.19-.45-.28-1.19-.6-1.31-2.36-.88-4.76-1.62-7.14-2.41l-.43.46c.31.51.52,1.33,1,1.49C225.2,355.77,227.49,356.39,229.77,357.07Zm-24.05-12.61c.32-3.42,0-3.87-2.53-3.9C202.67,343.71,202.9,344.08,205.72,344.46Zm-2.46,6.68c-.55,3.4-.27,3.8,2.49,3.72v-3.15Zm0,16.23c-.71,3.11-.23,3.76,2.39,3.17C206.19,367.34,206,367,203.28,367.37Zm2.4-17.66c.45-3.27.1-3.78-2.46-3.67C202.73,349.22,202.83,349.37,205.68,349.71Zm0,15.62c.59-3.14.23-3.62-2.39-3.26C202.66,365.25,203,365.67,205.64,365.33Zm0-5.2c.52-3.21.27-3.56-2.4-3.47C202.64,359.86,202.84,360.16,205.65,360.13Zm2.15-18c-.39,3.2-.23,3.45,2.23,3.61C210.59,342.83,210.41,342.52,207.8,342.12Zm2.26,13.8c.39-3.28.18-3.59-2.29-3.52v3.1Zm-2.19,1.49c-.67,3-.2,3.72,2.25,3.23C210.41,357.59,210.41,357.59,207.87,357.41Zm2.17-6.65c.5-3,.28-3.31-2.28-3.51v3.09c.54.15,1,.31,1.54.42A3.66,3.66,0,0,0,210,350.76Zm-2.29,15h2.31c.41-3.15.31-3.29-2.31-3.14Zm0,1.91v3.17H210C210.54,367.64,210.44,367.49,207.79,367.64ZM196.63,360c2.1-.06,2.31-.51,1.72-3.46C196.24,356.57,196.1,356.85,196.63,360Zm1.78-19.66c-2.12.47-2.38,1-1.83,3.88l1.94-.52c0-.77.12-1.49.12-2.21A5.83,5.83,0,0,0,198.41,340.35Zm0,5.48c-2.1-.14-2.62.91-1.74,3.55C198.71,349.16,198.87,348.84,198.45,345.83ZM196.56,362v3.29c2.17.1,2.47-.52,1.71-3.46Zm1.81-10.91c-2.1.31-2.39,1-1.67,3.62C198.76,354.54,198.9,354.25,198.37,351.09Zm-1.92,16.21a13,13,0,0,0,0,2.35,1.59,1.59,0,0,0,.92,1c.7.19,1.18-.15,1.14-1s0-1.53,0-2.36Zm15.74.7c-.37,3.16-.29,3.28,2,2.92C214.7,368,214.54,367.78,212.19,368Zm0-14.7c-.48,3-.28,3.33,2,3.27C214.66,353.69,214.63,353.63,212.23,353.3Zm0,4.94c-.39,3.1-.3,3.24,2,3.09C214.71,358.53,214.53,358.23,212.2,358.24Zm0,4.68v3.2l2.18.16c0-.7,0-1.21,0-1.72s0-.8-.07-1.29Zm2-15.84c.43-3,.33-3.16-1.95-3.46C211.67,346.43,211.78,346.64,214.2,347.08Zm0,4.81c.52-2.92.3-3.29-1.94-3.36C211.72,351.32,211.81,351.48,214.17,351.89Zm-20.66-1.56c1.9-.44,2.09-.94,1.4-3.51C193.18,347.1,193,347.58,193.51,350.33Zm0,5c1.8.06,2.15-.81,1.4-3.31C193.35,351.82,193.22,352.32,193.49,355.29Zm-.1,2v3.13c2,0,2.15-.45,1.56-3.33ZM195,370.73v-3.32l-1.53.21v3.19Zm0-29.12c-1.76.36-2.09,1.29-1.32,3.46C195.43,344.79,195.52,344.56,195,341.61Zm-1.4,24c1.71.06,1.83-.2,1.41-3.17C193.25,362.24,193,362.85,193.61,365.59Zm22.53-3.07c3.47-.84,3.53-.89,3-2.86C218.18,360.72,215.79,359.91,216.14,362.52Zm0,9.27c3.51,0,3.54-.05,3-2l-3,.4Zm3.17-5.23c-3.26.3-3.36.37-3.06,2.14.34,0,.7,0,1-.09.66-.11,1.31-.25,2-.39a5.08,5.08,0,0,0,.11-.8A7,7,0,0,0,219.31,366.56Zm0-16.76c-3.29,1.6-3.48,1.82-2.94,3.56C217.36,352.13,219.81,352.4,219.33,349.8Zm-3.12,9.62c3.28-1.15,3.61-1.27,3-2.82C216.47,357.3,216,357.72,216.21,359.42Zm0,6.15c3.25-.41,3.51-.63,2.9-2.32C216,363.86,216,363.86,216.22,365.57Zm3-12.3c-2.74.88-3.3,1.43-3,3C219.08,355.37,219.56,354.89,219.23,353.27Z" fill="#2c84c6"/><path d="M248.78,316v53.15a6.08,6.08,0,0,0,0,1.6c.12.41.53.73.81,1.09.23-.34.58-.64.65-1a10.14,10.14,0,0,0,0-1.83V316c4.76.86,9.27,1.66,13.77,2.49,17.13,3.16,34.25,6.38,51.4,9.45,2.16.38,2.65,1.19,2.64,3.28-.07,13.12,0,26.24.06,39.36a8.27,8.27,0,0,0,.22,1.29h5.48v4.35H205.74V372l4.4-.24V324.48Zm26.46,42.77-14.16-.7v13.66h14.16Zm19.11,1-12.29-.68v12.62h12.29Zm-52.78-1.85c-3.43.2-6.56.34-9.67.62a1.78,1.78,0,0,0-1.23,1.21c-.09,4,0,7.95,0,12h10.95Zm-25.82,1.61v12.38c2.87,0,5.61,0,8.34,0,.44,0,1.23-.59,1.24-.91.09-3.95.06-7.9.06-12Zm95.31,12.27V360.65l-10.56-.51V371.8Zm-50.12-23.36c0,2.53-.05,4.81,0,7.08a1.42,1.42,0,0,0,1,1c1.79.19,3.6.22,5.35.3v-7.95Zm8.26.62v8h5.89v-7.44Zm18.4,9v-7.42l-5.44-.47v7.59Zm-51-1.39a26.44,26.44,0,0,0,3.64-.23c.51-.1,1.29-.72,1.32-1.14.13-2.27.06-4.55.06-7.15l-5,.59ZM289,350.82v7.11c5,1.4,5.74.88,5.55-4.05,0-.82-.14-1.64-.23-2.71Zm-53.64-2c-1.36.13-2.57.17-3.75.4a1.47,1.47,0,0,0-1,1c-.09,2.25,0,4.5,0,6.94l4.76-.37Zm69.73,10c1-6.34.72-6.77-4.26-7.11a1.62,1.62,0,0,0-.33.11v7Zm-79.88-1.35V350a14,14,0,0,0-2.85.19c-.58.17-1.44.76-1.48,1.22-.16,2-.07,4.06-.07,6.34Zm35.9-30.15c-.77,5.64.18,6.64,5.4,5.88C267,327.23,267.62,327.85,261.14,327.34Zm-.22,10.07c0,1.78-.08,3.15,0,4.5a1.67,1.67,0,0,0,.93,1.25c1.48.28,3,.34,4.7.5v-5.58ZM311,359.31v-6.73l-4.37-.3C306.14,360.53,305.88,359.19,311,359.31Zm-91.24-1.37v-7.43c-1.54.33-3.59-.85-4.07,1.33-.42,1.94-.09,4-.09,6.1ZM270,338.48c-.48,6.39-.9,5.71,5.05,5.79v-5.18Zm0-10v5.63l5.07.61V329.3Zm16.78,7.72c1-5,.61-5.48-4.51-5.6C281.28,335.53,281.67,336,286.76,336.16Zm0,9.31c.84-5-.14-6.08-4.63-5.14C281.56,345.48,281.91,345.87,286.78,345.47Zm-52.06-17.16c-4.46.06-5.08,1-3.73,5.68C235.07,334.15,235.36,333.72,234.72,328.31Zm0,15.39v-5.36c-4.47,0-5.11,1-3.71,5.84ZM289.8,346l4.51.45v-5.1l-4.51-.48Zm-52.38-8.31v5.67l4.1-.52v-5.69Zm56.69-.44c.79-5.63.7-5.31-4.29-5.45v4.87ZM241.46,326.8l-4.23.83c0,1.55,0,2.92,0,4.28a6.4,6.4,0,0,0,.17,1.08C242.37,332.72,241.86,333.13,241.46,326.8ZM225.11,330c-4,.05-4.86,1.61-3.19,5.63C225.82,335.18,226.08,334.72,225.11,330Zm75.48,12.4c-1,5-.73,5.3,4,4.88C305.46,342.65,305,342,300.59,342.42Zm-79.09,3c1.45-.32,3.42-.33,3.58-.87.45-1.54.16-3.29.16-5.11l-3.74.62ZM311,339.35c.75-4.77.19-5.45-3.81-4.69C306.24,338.75,307.3,340.05,311,339.35Zm-10.54-6v4.8l4,.56C305.24,333.68,305.13,333.53,300.47,333.35ZM310.93,348c.92-4.52,0-5.66-3.9-4.56v4.29c1.19.14,2.23.28,3.28.39A2.2,2.2,0,0,0,310.93,348Zm-95-11.58c3.84.06,4.36-.83,3.13-5.33C215.24,331.23,214.89,331.82,215.9,336.46Zm-.14,4.43v5.17l3.43-.51v-5.21Z" fill="#4ba4db"/><path d="M388.79,369.66h7.41V376h-108v-6.08l5.81-.44v-4q0-47.59,0-95.19a5.48,5.48,0,0,1,2.61-5.17c7-4.89,13.92-10,20.87-15,.88-.63,1.8-1.18,3.2-2.09v4q0,56.94,0,113.89a26.24,26.24,0,0,0,.55,3.82l1.35-.22V247.78c1.29.43,2.12.63,2.9,1,13.32,5.63,26.61,11.33,40,16.87,2.27.94,3.22,2.05,3.14,4.62-.21,6.56.09,13.14-.14,19.7-.1,2.75.89,3.94,3.37,4.77,4.54,1.51,8.9,3.55,13.46,5,2.92.91,3.53,2.47,3.51,5.32-.13,20.48-.07,41-.07,61.46C388.64,367.31,388.72,368.19,388.79,369.66Zm-34-.13,1.84-.08v-80.4l6.67,2.14c.19-.37.37-.74.56-1.1a15,15,0,0,0-2.76-1.65c-7.58-2.56-15.19-5-22.79-7.54-2.82-.92-5.64-1.81-8.49-2.72-1.45,7-1.2,7.4,5,9.25,2,.6,4.08,1.11,6.05,1.87,4.38,1.67,8.69,2.59,13-.13.13-.08.4.07.83.17C354.82,316,354.58,342.79,354.81,369.53Zm-25-106.17c-1.23,7.25-1.18,7.35,4.76,9.46q12.58,4.47,25.17,8.89c1.12.4,2.26.73,3.43,1.11,1.27-6.08,1.12-6.37-4.15-8.38-2-.75-3.93-1.53-5.91-2.28Zm-32.64,19.47,15.68-9.42c4.67-2.81,5.14-4.06,3.58-9.93l-15.93,10.26C296,276.63,296,276.64,297.15,282.83Zm-.09,78.05a2.31,2.31,0,0,0,.77.24c4.3-.29,8.62-.56,12.92-.94,7.15-.63,6.29.81,6.18-7a4.66,4.66,0,0,0-.47-1.2c-4.88.6-9.81,1.17-14.73,1.83-5.45.73-5.45.77-5,6.31A4.26,4.26,0,0,0,297.06,360.88ZM317,307.49l-15.87,6.09c-5.05,1.94-5.34,2.52-3.85,8.43,6.16-2.11,12.31-4.17,18.42-6.35a2.31,2.31,0,0,0,1.24-1.67C317.08,312.05,317,310.08,317,307.49Zm-.49,29.68c-6.16,1.32-12.33,2.6-18.48,4a2.16,2.16,0,0,0-1.26,1.57,49.83,49.83,0,0,0-.06,5,6,6,0,0,0,1.2.26c4.5-.73,9-1.43,13.5-2.21,6.15-1.06,6.15-1.09,5.54-7.38A7.38,7.38,0,0,0,316.49,337.17Zm.47-14.88c-5.7,1.69-10.69,3.17-15.68,4.67-5.22,1.58-5.6,2.34-3.92,8.09,6.09-1.54,12.21-3.06,18.3-4.7a2.22,2.22,0,0,0,1.24-1.62C317.06,326.78,317,324.81,317,322.29Zm-.32-44.18c-5.55,3.09-10.77,6-16,8.89-4.61,2.57-4.73,2.86-3.47,8.84,5-2.55,9.91-5.07,14.82-7.55C317.66,285.43,317.67,285.44,316.64,278.11Zm-.08,14.83-16.38,7.65c-3.92,1.83-4.58,3.76-2.71,8.23,4.69-2,9.37-4,14.07-6,5.89-2.47,5.9-2.46,5.34-9C316.87,293.77,316.81,293.67,316.56,292.94Zm12.79,66.66,7.51.46c.67-7.91,1.73-8.36-7.29-7.68-.07.71-.2,1.46-.21,2.21C329.33,356.11,329.35,357.64,329.35,359.6Zm7.4-43.13c1.14-8.12,1.21-7.43-6.94-8.41C328.24,314.91,329.31,316.2,336.75,316.47Zm0,28.75c1-7.48,1.49-7.78-7-7.61C328.78,345.48,328.53,345.46,336.78,345.22Zm-7-52.27c-1.22,7.84.41,9.68,7.38,8.75v-6.82Zm7.08,38.18c1.17-7.7-.85-9.77-7.35-7.92v6.62a20.32,20.32,0,0,0,2.3.67C333.41,330.75,335,330.91,336.84,331.13Zm29.71-22.35c.9-7,.25-8-5.16-8.09C360.5,307.61,360.56,307.72,366.55,308.78Zm-5.15,3.08c-.82,7.21-.53,7.64,5.08,8C367.69,313.34,367.16,312.48,361.4,311.86Zm-.29,52.59h5.45v-7h-5.3c-.05,1.26-.12,2.34-.15,3.43S361.11,363.07,361.11,364.45Zm5.36-33.3c.77-6.72,1.33-7.94-5.14-7.63C360.58,330.37,360.58,330.37,366.47,331.15Zm.17,22.09c.66-7.19.4-7.53-5.12-7.05C360.18,353,360.71,353.76,366.64,353.24Zm-5.21-18.67c-1,7.28-.57,7.89,5,7.41C367.75,335.33,367.46,334.89,361.43,334.57Zm9.81-9c-1,6.42-.68,7.77,4.78,6.94C376.56,325.91,376.37,325.64,371.24,325.58Zm4.64,17.78c.92-6.57.47-7.22-4.7-6.82C370.13,343.22,370.49,343.74,375.88,343.36Zm-.11-31.74c.94-6.5,1-7.47-4.59-7.64C370.14,310.25,370.34,310.62,375.77,311.62Zm-4.45,3.13c-1.42,6.11-.47,7.57,4.65,7.14C376.61,315.32,376.44,315.05,371.32,314.75Zm4.73,32.8-4.71-.5c-1.18,7.13-.56,8,4.71,6.79ZM371,358v6.82h5v-6.49a19.89,19.89,0,0,0-2.08-.31C373.05,358,372.18,358,371,358Zm13.66-23.46c1.31-5.91.82-6.72-4.11-6.82C379.29,333.69,379.78,334.5,384.69,334.56Zm-4.29,20.22,4.51.54v-6.6l-4.51-.61Zm4.39-40.43c1-6.35.84-6.66-4.25-7.41C379.47,313,379.63,313.32,384.79,314.35Zm-.07,30.54c1.29-6.07.66-7.05-4.17-6.7C379.41,344.18,379.67,344.63,384.72,344.89Zm.1-20.35c1-6.18.38-7.14-4.34-7C379.55,323.58,379.66,323.77,384.82,324.54Zm-4.27,34.29c-1.1,6.51-.63,7.18,4.35,6.21v-6.21Zm-29.39-24.78-3.82.8v7.34l3.82-.81Zm0,23.1-3.87.28v7.23l3.87-.21ZM347.45,308c4.4-.82,4.76-1.69,3.51-7.89C346.65,300.73,346.33,301.42,347.45,308Zm-.08,11.26c4.32-.41,5.11-2.3,3.4-7.77C346.55,312.26,346.55,312.26,347.37,319.25Zm0,26.87v7.12c4.31-.16,5.11-2.1,3.34-7.52ZM351,322.88c-4.35.61-4.83,1.73-3.52,7.7C351.85,330.24,352.09,329.73,351,322.88Zm-10.47,31.23,3.6-.55v-6.72C339.66,346.81,339.26,347.67,340.53,354.11Zm-.1-32.95c4.16-.66,4.44-1.32,3.32-7.32C339.66,314.17,339.37,314.8,340.43,321.16Zm3.45,14.64c-4.25.23-4.57.9-3.39,7.33l3.64-.54c0-1.79,0-3.34,0-4.88C344.1,337.07,344,336.43,343.88,335.8Zm-3.46-25.57c4.12-.74,4.58-1.88,3.23-7.53C339.54,303.51,339.39,303.85,340.42,310.23Zm.1,21.7c3.94-.06,4.6-1.6,3.08-7.17C339.6,325.24,339.15,326.26,340.52,331.93Zm3.38,32.76v-7.14l-3.63.59v6.55Z" fill="#2c84c6"/><path d="M446.84,373h5.9v3H366.81v-2.84h7.49v-16l15.07-1.22c0,.65.08,1.19.09,1.73q0,6.83,0,13.64a3.94,3.94,0,0,0,0,1.09c.06.24.33.43.51.64.2-.2.52-.37.56-.59a6.61,6.61,0,0,0,.05-1.41c0-10.76,0-21.53,0-32.29,0-1.55.58-1.91,2-1.67l.15,2,6.28-.94c0-3.4.09-6.73,0-10.06-.06-1.51.39-2.15,1.89-2.31s3-.52,4.58-.83v6.24c-1.41.25-2.79.54-4.17.72-.87.12-1.33.41-1.29,1.37.05,1.5,0,3,0,4.73l6.57-1c0-1.58,0-3.09,2.4-2.43v36.52a4.63,4.63,0,0,0,0,1.24c.08.27.4.64.62.65s.56-.34.66-.6a3.3,3.3,0,0,0,0-1.09V354.2l20.59-1.66v20.37h1.64V352.57l4.59.63c2.58.36,5.16.79,7.76,1.05,1.46.14,2,.62,2,2.2-.11,4.91,0,9.83,0,14.74Zm-40.31-.15v-9.26c-1,0-1.86,0-2.73,0s-1.4.34-1.35,1.38c.07,1.55,0,3.12,0,4.68,0,3.61,0,3.61,3.63,3.35A3.24,3.24,0,0,0,406.53,372.84Zm-5-8.9h-3.94V373a18.72,18.72,0,0,0,2.93,0,1.43,1.43,0,0,0,1-1C401.54,369.34,401.51,366.69,401.51,363.94Zm-5.11,9v-9l-3.64.24v8.77Zm6.15-10.65c1.17,0,2.16.07,3.14,0,.33,0,.88-.47.89-.75.09-1.69,0-3.4,0-5.27l-4.07.33Zm-5-5.35v5.76l3.84-.26V356.6Zm-1.15,5.77V357l-3.6.32v5.64ZM402,347.31c3,0,3,0,2.94-2.72,0-.62,0-1.25,0-1.87-.05-.89-.3-1.88-1.33-1.71a2.34,2.34,0,0,0-1.52,1.57A32.16,32.16,0,0,0,402,347.31Zm-1.11.24a36.32,36.32,0,0,0-.05-4.33c-.08-.62-.75-1.16-1.15-1.73-.55.52-1.48,1-1.57,1.57a32.55,32.55,0,0,0-.08,4.77Zm23.6,17.82c0,1.5,0,2.84,0,4.18,0,.92.56,1,1.24.91s1.73.48,1.79-.82,0-2.87,0-4.44Zm.11-8.12v5.05a10.4,10.4,0,0,0,2,0c.36-.07.9-.45.92-.71.09-1.47,0-2.95,0-4.53ZM397,347.93a37.22,37.22,0,0,0-.06-4.39c-.07-.55-.76-1-1.17-1.55-.49.47-1.35.89-1.41,1.41a41.54,41.54,0,0,0-.07,4.89Zm21.88,22.47h2.73v-4.82h-2.73Zm2.84-12.94-2.8.17v4.82c2.72.4,2.81.32,2.8-2.14Zm-8.22.44v5l2.56-.19V357.9Zm0,7.88v4.73h2.59v-4.73Zm-28.56,1v4.39l1.94-.1v-4.29Zm0-6.93v4.78c.89-.51,1.91-.77,2-1.23a16.89,16.89,0,0,0,.09-3.66Zm-2.23,6.64c-.88.47-1.89.71-2,1.14a16,16,0,0,0-.08,3.46h2.07Zm-4.07-6-.39-.46c-.54.36-1.46.64-1.56,1.1a17.47,17.47,0,0,0-.07,3.5l2-.13Zm4.06,3.83V360l-2,.15v4.22Zm-4.13,6.81V367l-1.95.1a24,24,0,0,1,0,2.56C376.36,371.22,377.1,371.52,378.51,371.08Z" fill="#4ba4db"/><path d="M106.9,298.52S92.5,329.7,104,363.11c2.87,11.13,17,30.66,8.32,39.57s-14.73,32.8-17,58.42c-2.88,13.37-2.88,17.82-2.88,17.82h14.39s11.53-40.09,17.29-55.68c8.64-11.13,17.84-17.52,17-26.87s-3.55-88.08-1.91-97C104.68,297.12,106.9,298.52,106.9,298.52Z" fill="#f7b1a4"/><path d="M106.9,300.74S72.34,327.47,112.65,372c17.28,20,28.84,27.14,26,33.82s-6.93,21.19-1.76,48.35c1,5.25-4,20.28-4,20.28h17.28s11.52-66.81,5.77-82.41-20.16-49-20.16-57.9-.85-12.57,3.54-31.13C130.6,303,106.9,300.74,106.9,300.74Z" fill="#f4a190"/><path d="M151,471.93S149.4,483.7,160.39,490c7.66,4.38,23.55,9.55,14.91,11.78s-17.27,5.49-31-5c-4.57,0-12.77,2.81-16-.49a5.41,5.41,0,0,1-1.32-4c0-8.91,6.66-21.15,6.66-21.15s3.5,2.86,5.49,2.36c1.43-.36,4.1-1.74,6.37-1A6.62,6.62,0,0,0,151,471.93Z" fill="#050f11"/><path d="M128.09,492.4h7.71a4.33,4.33,0,0,1,4.33,4.33v1.84a1.26,1.26,0,0,1-1.26,1.26h-12a0,0,0,0,1,0,0v-6.18a1.26,1.26,0,0,1,1.26-1.26Z"/><path d="M106.89,478.38s2,8.74,13.46,15.53,23.3,15.7,11.78,15.7-45.4-1.81-45.4-10.86,5.76-20.37,5.76-20.37,4.49-.4,5.92,0C101.51,479.25,106.89,478.38,106.89,478.38Z" fill="#050f11"/><path d="M86.83,499.39h7.71a5.59,5.59,0,0,1,5.59,5.59v1.84a0,0,0,0,1,0,0H86.83a0,0,0,0,1,0,0v-7.44A0,0,0,0,1,86.83,499.39Z" transform="translate(31.8 -4.88) rotate(3.6)"/><path d="M147.13,189.87s-3.84,15.38-1,19.53-.21,15.4-7.38,13.84-20.63,3.41-21.48-11.13S129.33,170.81,147.13,189.87Z" fill="#fcc7be"/><path d="M102.91,302.14s-21,19.43-3.41,74.85C103,391.06,80,416.42,71.7,428.81s13.73,9.75,35.72,5.35,20.23,1.76,36.07,10.56,13.95,10.44,20.61-4.9,4.89-50.52-8.3-72.51-16.71-60.69-16.71-64.21C105.66,303.1,102.91,302.14,102.91,302.14Z" fill="#0d3075"/><path d="M110.13,301.8S90.05,332,102.3,370.66,91.38,435,89.74,437.39c10.2-.79,30.61-12.56,49.45,4.71L155,450.73s16-45.05-7-89.21c-12.31-23.65-14-56-12.31-59.93S110.13,301.8,110.13,301.8Z" fill="#a9f0fc" opacity="0.16" style="mix-blend-mode:screen"/><path d="M117.21,300s-3.92,44,3.93,70.64-5.5,59.73-8.64,62c7.85-.85,14.51.58,21.78,6.56,5.9,4.09,9.42,6,9.42,6s9.62-40.85-4.51-76.18-12.56-59.65-11.77-69.86C117.21,299.23,117.21,300,117.21,300Z" fill="#0d3075"/><path d="M123.71,215.57,119,228.65s-22-8.57-24.66,2-3.19,33,5.2,50.16.5,24.45.5,24.45,7.06,0,9.18-.86c3.08-1.24,8.66-.3,11.32.62,2.86,1,9.21,1,11.9-.13,3.49-1.54,9.15-.11,9.15-.11s-9.46-23.75-1.61-38.62c4.08-7.74,2.68-8.25,2.68-8.25s.5-13.24-3.69-20.56a18,18,0,0,0-9.34-8.13,1.74,1.74,0,0,1-1.11-2l2.56-13.74Z" fill="#fa7066"/><rect x="128.22" y="207.74" width="12.54" height="21.27" rx="4.71" transform="translate(-74.74 70.05) rotate(-23.04)" fill="#033460"/><path d="M136.66,232.22s-6.37-11.92-5.13-11.61,2.36,2.46,2.36,2.46-2.67-8.32-.82-5.34a36,36,0,0,1,2.67,5s-3.8-8.52-2.88-8.93,2.47,4.41,3.08,6.16c.31.72-2.36-6.47-1.74-7.5s2.67,6.78,3.18,7.3-1.85-7.4-.82-7.2,3.46,7,4.42,9.46c3,7.5.82,10.27.82,10.27S137.38,234.89,136.66,232.22Z" fill="#f4c3bd"/><path d="M113.75,269.11s11.2,22.09,21.48,14.18,16.22-24.55,16-31c-.21-6.79-7.94-22.49-8.74-22.1l-5.25,2.94a.59.59,0,0,0-.28.76,46.11,46.11,0,0,1,4.3,18.19c.11,4.85-3.92,10.95-4.76,13.41-.32,1-3.47,4.57-3.87,3.65-1.24-2.83-3-11.21-4.11-16-1.75-7.5-12.13-5.76-12.13-5.76Z" fill="#fc8b88"/><path d="M145.47,186.19s-13.78-8.77-30.94.27-15.82,12.95-19.32,24.73-3.78,14.46-9.27,21.29,3.28,14.24,1.81,17.37S72.17,261.13,72.64,266s-2.19,12.51,13.73,17.36,13.6.05,20.36-.85,9.66,10.14,17.21-2.15,6.31-35-1.64-45.91,8-24,12.12-29.39c5.19-3.65,7.16-2.56,9.31-6S151.3,191.47,145.47,186.19Z" fill="#183845"/><path d="M122.14,189.1c-4.26,5-8.09,7.63-8.47,14.69-.39,7.35-1,13.9-7.37,18.59-.82.61.77,4.42,0,5,5.11-3.79,7-9.35,7.28-15.52.16-3.7,0-7.44,2-10.69,1.7-2.71,4.46-4.66,6.53-7.07.84-1-.81-4.06,0-5Z" fill="#183845"/><g opacity="0.39"><path d="M118.6,185.52a.73.73,0,0,1,.21,0,6.22,6.22,0,0,0,.9-.05c.13,0,0,0-.8.31l-.22.11c-.4.19-.8.32-1.18.52s-.77.36-1.15.56c-.76.38-1.48.8-2.2,1.23a34.71,34.71,0,0,0-8.3,7.19,46.94,46.94,0,0,0-6,9.26c-.41.83-.81,1.67-1.19,2.53,0,0-.52,1-1.23,2.48a25,25,0,0,1-2.8,4.64,10.09,10.09,0,0,1-2.11,2l-.43.29a7.57,7.57,0,0,0,.88-.8,7.79,7.79,0,0,0,1.23-1.86c0,.07.18-.34.44-1a23.1,23.1,0,0,0,.81-2.7c.23-1.05.47-2.1.65-2.9s.34-1.35.34-1.35c.25-.81.55-1.6.86-2.39a33.1,33.1,0,0,1,6.25-10.12,25.47,25.47,0,0,1,9.83-6.71,20.87,20.87,0,0,1,2.56-.76A19.37,19.37,0,0,1,118.6,185.52Z" fill="#324b51"/></g><g opacity="0.39"><path d="M97.68,210.49a1.05,1.05,0,0,1,.15-.15,5.52,5.52,0,0,0,.6-.67c.07-.1-.06,0-.33.8l-.08.23c-.67,1.61-1.37,3.19-2.07,4.75a73.9,73.9,0,0,0-3.66,9.5c-.47,1.59-.79,3.22-1.13,4.92s-.69,3.43-1.22,5.17a23.88,23.88,0,0,1-1,2.85,15.39,15.39,0,0,1-1.63,2.51A12.78,12.78,0,0,1,83,243.91a9,9,0,0,1-2.77.84c-.52.06-.66.09-.51.07a6.6,6.6,0,0,0,3-1.48c-.08,0,.29-.24.79-.77a11.29,11.29,0,0,0,1.61-2.22,15.25,15.25,0,0,0,1.43-3.76c.23-.74.41-1.5.58-2.27.35-1.63.62-3.31.94-5a37.33,37.33,0,0,1,1.3-5.23,36.69,36.69,0,0,1,5-9.47C95.45,213.16,96.54,211.81,97.68,210.49Z" fill="#324b51"/></g><g opacity="0.39"><path d="M146.84,190.25v-.19a3.09,3.09,0,0,0-.1-.89c0-.11,0,0,.36.79l.1.23a5.48,5.48,0,0,1,.26,1.34,6.36,6.36,0,0,1-.06,1.38,6.89,6.89,0,0,1-.31,1.36,9.83,9.83,0,0,1-.53,1.3,11.24,11.24,0,0,1-2,2.73,17.31,17.31,0,0,1-2.56,2.07c-1.78,1.22-3.63,2.16-5.26,3.22a38.67,38.67,0,0,0-4.64,3.62c-1.47,1.34-3,2.75-4.32,4.16a16,16,0,0,0-1.64,2.07,14.75,14.75,0,0,0-1.39,2.22,23.53,23.53,0,0,0-1.78,4.86,27.75,27.75,0,0,0-.66,3.3c0-.29.06-1.73.11-3.49a30.27,30.27,0,0,1,.41-4.12,18.47,18.47,0,0,1,.81-3c.15-.41.29-.75.4-1l.17-.37a17.84,17.84,0,0,1,1.46-2.23,42.88,42.88,0,0,1,4.35-4.66,30.12,30.12,0,0,1,5.13-3.92c1.88-1.11,3.79-1.92,5.52-2.84a20.4,20.4,0,0,0,2.47-1.52,10.35,10.35,0,0,0,2-2,8.42,8.42,0,0,0,1.2-2,6,6,0,0,0,.36-1.16A6.28,6.28,0,0,0,146.84,190.25Z" fill="#324b51"/></g><g opacity="0.39"><path d="M120.39,220.94a1.54,1.54,0,0,1,.09-.19,3.77,3.77,0,0,0,.41-.83,2.35,2.35,0,0,0,.07.87l0,.25.13,1.29c.05.42.11.84.16,1.26.12.83.25,1.64.43,2.44a33.21,33.21,0,0,0,1.19,4.35c.3.84.62,1.65,1,2.47l1,2.57a19.18,19.18,0,0,1,1.27,5.36,10.67,10.67,0,0,1-.19,2.91c-.11.52-.13.65-.1.51a6.59,6.59,0,0,0-.61-3.34c0,.09-.14-.35-.48-1a23.24,23.24,0,0,0-1.44-2.38c-.59-.86-1.21-1.75-1.65-2.46s-.72-1.23-.72-1.23a16.79,16.79,0,0,1-1-2.47,16.57,16.57,0,0,1-.69-5.08,15.19,15.19,0,0,1,.29-2.71c.08-.45.21-.89.33-1.32A12.07,12.07,0,0,1,120.39,220.94Z" fill="#324b51"/></g><g opacity="0.14"><path d="M128,259.89l0-.18a.82.82,0,0,0,0-.49.44.44,0,0,0-.25-.23c-.06,0,0,0,.07,0a1,1,0,0,1,.62.58,1.29,1.29,0,0,1,.12.26,9.93,9.93,0,0,1,.2,1.36c0,.44.08.89.09,1.33s0,.9,0,1.34-.06.89-.1,1.34a28.91,28.91,0,0,1-.71,4c-.32,1.3-.7,2.57-1.11,3.82q-.47,1.37-1,2.7l-1.15,2.52c-.32.72-.71,1.53-1,2.37s-.67,1.69-1,2.47-.35,1.24-.47,1.69l-.2,1.08c-.08.52-.07.66-.07.51s-.07-1.73,0-3.53c0,.09,0-.39,0-1.18s.15-1.87.33-2.95c.31-2.17.83-4.31.83-4.31.24-.79.5-1.58.76-2.35.41-1.24.84-2.45,1.28-3.66s.85-2.41,1.27-3.62c.12-.4.26-.8.4-1.2s.24-.8.37-1.21.25-.81.36-1.22S127.93,260.25,128,259.89Z" fill="#324b51"/></g><g opacity="0.39"><path d="M112,279.38l.06,0a.41.41,0,0,0,.2-.09s0,0,.06.21l0,.07a1,1,0,0,1,0,.34,3.6,3.6,0,0,1-.08.86,4.4,4.4,0,0,1-.42,1,4.69,4.69,0,0,1-.6.92,6,6,0,0,1-1.49,1.33,4.72,4.72,0,0,1-.82.42l-.64.08-.61.06c-.21,0-.44,0-.62.06a1.71,1.71,0,0,0-.66.2,2.49,2.49,0,0,0,.32-.67s0-.08.08-.25.15-.38.22-.61.17-.44.23-.61l.09-.29a6.32,6.32,0,0,1,.53-.69,6.69,6.69,0,0,1,1.4-1.22,4.63,4.63,0,0,1,.9-.49c.29-.13.58-.22.83-.31a5.64,5.64,0,0,0,.67-.2Z" fill="#324b51"/></g><path d="M394.09,459.74s2.94,8.82,2.29,15c-.33,2.61,13.05.33,13.05.33s-2.28-10.45.33-15.67l2.61-5.23Z" fill="#f88f73"/><path d="M394.73,473.18s-6.41,4.41,2.95,11.7,16,12.19,19.26,7.83-2.69-17.47-8.29-23.2S394.73,473.18,394.73,473.18Z" fill="#183845"/><path d="M396.45,469s-.72,4.11-.07,5.74,6.2,9.14,9.46,3.26,4.25-7.18,1.64-10.44S396.45,469,396.45,469Z" fill="#f88f73"/><path d="M334.73,304.21S384,378.41,388,398.84s3,66.53,3,66.53a9.87,9.87,0,0,0,5.43,1.23c2.61-.29,5.47-5.07,8.81-4.9,6.2.33,12,.05,12.37-1,.75-2.25-12.18-37.1-3.37-55.84s-20.43-65.4-20.43-65.4l-17.61-40.11Z" fill="#122d35"/><polygon points="360.47 211.01 364.71 217.54 361.45 219.5 358.51 220.48 355.57 215.58 360.47 211.01" fill="#f88f73"/><path d="M358.51,234.19s8.35.83,17.3,13.38c1.48,2.07-20.71-30.48-18.77-29.57,2.45,1.17,7-3.07,7-3.07s15.09,19.94,21.65,31.75,14.34,20.88,6.1,24.07-10.28-1.48-16.65-5.55S360.41,247.43,360,246.49,358.51,234.19,358.51,234.19Z" fill="#fefefe"/><rect x="350.35" y="199.91" width="11.42" height="17.95" rx="4.3" transform="translate(-56.59 220.36) rotate(-31.99)" fill="#033460"/><path d="M349.37,460.4s2.94,8.81,2.29,15c-.33,2.61,13.06.33,13.06.33s-2.29-10.45.32-15.67l2.61-5.22Z" fill="#f88f73"/><path d="M335.86,234.68s-16.68,3-18.74,6.56-21.18,33.92-15.74,46.66,21.92,39.92,25.86,45,5.81,6.56,5.81,6.56l5.06-15.18s-27-33.73-23.43-47c1.88-7.68,17.81-24.55,20.43-28.86S335.86,234.68,335.86,234.68Z" fill="#fefefe"/><path d="M329.49,305.52s-1.13,27.73,7.49,69.15,10.87,49.28,8.62,66.52,0,21,0,21,8.65.36,12.26,3.44,16.6-2.5,14.35-6.44-3.93-28.86-.75-35.23-7.68-39-6.18-50.78,1.5-36.92,1.5-36.92l-5.33-28.95Z" fill="#183845"/><path d="M350,476.44s-5.15,5.78,4.22,13.06,20.41,9.77,23.65,5.41-8.35-16.41-13.95-22.14S350,476.44,350,476.44Z" fill="#183845"/><path d="M351.54,472.2s.77,7.13,3.71,8.11,9.79-1,9.47-3.59-2-8.49-3.27-8.49S351.54,472.2,351.54,472.2Z" fill="#f88f73"/><path d="M340.54,233.93s-27.73-2.68-16.49,36.36c7.15,24.82,5.44,35.23,5.44,35.23" fill="#fefefe"/><path d="M340.73,226.44l-.19,7.49s-19.3,10.68-16.49,36.36,5.44,35.23,5.44,35.23,6.37,6.56,25.11,3,29,.56,23.61-28.11-14.43-45.17-18.55-45.73-8.81-1.5-8.81-1.5L348,225.31Z" fill="#fefefe"/><path d="M328.36,205.26s2.06,21.55,12.93,21.55,15.18-5.81,14.06-23.05S328.74,200.58,328.36,205.26Z" fill="#f88f73"/><path d="M329.14,212.32s-7.84-1.31-5.88-6.53-.65-7.18,2.94-8.16,2.28,0,5.22-2.29,9.14-3.92,9.47-2.61,3.26-3.92,6.2-2,6.53,2.61,6.53,4.57,4.89,3.27,3.26,5.88-.85,11.44-.85,11.44,1.18-1.32-4.7-7.2c-1.3-2-3.92-4.9-7.51-2s-5.22,5.55-8.16,6.2-4.71,4.84-5.29,4.55S329.14,212.32,329.14,212.32Z" fill="#183845"/></g></g></svg>