<svg id="Layer_1" data-name="Layer 1" xmlns="http://www.w3.org/2000/svg" width="24" height="24" viewBox="0 0 24 24"><title>LogoCRMCall</title><path d="M18.07,12.31a4.5,4.5,0,0,0-4.39-4.15A4.49,4.49,0,0,0,9.3,12.31a4.68,4.68,0,0,0-2.24,4A4.53,4.53,0,0,0,11.47,21a4.19,4.19,0,0,0,2.21-.63A4.25,4.25,0,0,0,15.9,21a4.53,4.53,0,0,0,4.41-4.64A4.68,4.68,0,0,0,18.07,12.31Z" fill="#fff"/><path d="M18,6.16l.83-.33c.2-.09,3.78-1.26,4.11-1.35l.13-.05a.19.19,0,0,0,.1-.27,2.37,2.37,0,0,0-.25-.47,5.09,5.09,0,0,0-.46-.58,5.78,5.78,0,0,0-.66-.65c-.34-.26-.71-.5-1.06-.74a.19.19,0,0,0-.1,0,5,5,0,0,0-.67,0l-1.71.22-1.55.23-1.37.29-1,.21-1,.25L12,3.26l-.72.24c-.31.1-.62.19-.93.3l-.86.32-.64.22-1.26.53-.75.33-1.45.71-.94.49c-.14.07-1.32.7-1.52.83s-.63.37-.94.58-.59.39-.88.6C1,8.49.9,8.56.86,8.72a7.26,7.26,0,0,0-.34,1.52s0,.09,0,.13,0,1.39,0,1.47a1.55,1.55,0,0,0,0,.31s.08.13.11.13a1.29,1.29,0,0,0,.4-.08c.22-.1,5.16-1.81,5.5-1.89a.9.9,0,0,0,.23-.08c.08-.22.18-.43.28-.64a7.24,7.24,0,0,1,1.52-2,7.11,7.11,0,0,1,2-1.36h0a5.43,5.43,0,0,1,.75-.24c.45-.11.91-.24,1.37-.31l.5-.06h.26a7.92,7.92,0,0,1,.85,0,7.08,7.08,0,0,1,2.81,1,1.87,1.87,0,0,0,.35-.17Z" fill="#0767be"/><path d="M23.48,5c0-.08-.07-.16-.18-.14s-.37.08-.56.12L22.5,5c-.36.09-.72.18-1.08.29s-1.5.53-1.72.62l-1.19.45-.41.18c-.15.07-.29.16-.44.22s-.24.24-.07.4a1.94,1.94,0,0,0,1.28.48,5.61,5.61,0,0,0,1.42-.12c.35-.08,1.52-.47,1.76-.56a3.33,3.33,0,0,0,1.1-.62,1.08,1.08,0,0,0,.35-.53S23.5,5.06,23.48,5Z" fill="#0767be"/><path d="M6.69,10.85l-.91.2c-.27.07-.53.17-.8.24l-.75.2-.93.32a8.59,8.59,0,0,0-1,.34l-.55.22-.7.31c-.15.06-.18.17-.12.32a1.43,1.43,0,0,0,.13.28,2,2,0,0,0,.41.42,1.3,1.3,0,0,0,.78.16,3.73,3.73,0,0,0,1.27-.25l.12,0c.22-.07.45-.13.67-.22s.44-.19.65-.29l.36-.18a3.71,3.71,0,0,0,.76-.47,2.75,2.75,0,0,0,.55-.58,1.24,1.24,0,0,0,.28-.77C6.94,10.89,6.86,10.81,6.69,10.85Z" fill="#0767be"/><path d="M12.67,12.08c-.29,0-.36.11-.25.38s.22.59.32.89c0,.13.09.26.13.39s.1.19.25.19h3.23a2.17,2.17,0,0,1,1.14.31,3.67,3.67,0,0,1,.61.42A2.64,2.64,0,0,1,19,16.42,3.55,3.55,0,0,1,19,17.5a2,2,0,0,1-.36.81,4.82,4.82,0,0,1-.5.6,2.35,2.35,0,0,1-.85.53,2.77,2.77,0,0,1-1.13.21,2.42,2.42,0,0,1-.91-.21c-.15-.07-.17-.17-.09-.31s.2-.33.3-.5l.43-.78.32-.55c.07-.12.14-.24.2-.36s.26-.46.4-.69.06-.31-.16-.35l-1-.22-.22,0a.24.24,0,0,0-.32.13l-.5.83c-.16.25-.32.5-.47.75s-.29.51-.44.75a5.75,5.75,0,0,1-.41.56,4.37,4.37,0,0,1-.44.42,2.49,2.49,0,0,1-1.2.55,2.72,2.72,0,0,1-2.56-.88,2.86,2.86,0,0,1-.65-1.13,2.64,2.64,0,0,1-.07-1.34,3.1,3.1,0,0,1,.93-1.66.26.26,0,0,1,.46.11c.09.2.19.38.29.57s.33.6.5.9.18.31.27.46l.26.49c.11.21.22.42.34.62s.14.09.22,0l.47-.54c.16-.19.32-.38.49-.56a.27.27,0,0,0,.05-.39l-.56-1c-.16-.28-.33-.56-.49-.85s-.37-.7-.52-1.06a2.13,2.13,0,0,1-.12-.62A3,3,0,0,1,11,11.67a2.79,2.79,0,0,1,.65-1.16,3.2,3.2,0,0,1,.86-.65,2.87,2.87,0,0,1,1.68-.24,2.25,2.25,0,0,1,1.15.5c.22.21.45.41.65.64a2.94,2.94,0,0,1,.3.52,5.66,5.66,0,0,1,.2.58c0,.12,0,.18-.13.21H12.67Z" fill="#0767be"/><path d="M19.35,11.55a6,6,0,0,0-1.74-3.14,5.68,5.68,0,0,0-7.86,0A6,6,0,0,0,8,11.55a5.8,5.8,0,0,0-1.55,1.79,6.11,6.11,0,0,0,.87,7.19,5.68,5.68,0,0,0,4,1.79h4.84A5.67,5.67,0,0,0,20,20.53a6.11,6.11,0,0,0,.87-7.19A5.8,5.8,0,0,0,19.35,11.55ZM15.9,21a4.25,4.25,0,0,1-2.22-.63,4.19,4.19,0,0,1-2.21.63,4.53,4.53,0,0,1-4.41-4.64,4.68,4.68,0,0,1,2.24-4,4.49,4.49,0,0,1,4.38-4.15,4.5,4.5,0,0,1,4.39,4.15,4.68,4.68,0,0,1,2.24,4A4.53,4.53,0,0,1,15.9,21Z" fill="#0767be"/></svg>